<?xml version="1.0" standalone="no"?>
<!DOCTYPE svg PUBLIC "-//W3C//DTD SVG 20010904//EN"
 "http://www.w3.org/TR/2001/REC-SVG-20010904/DTD/svg10.dtd">
<svg version="1.0" xmlns="http://www.w3.org/2000/svg"
 width="700.000000pt" height="700.000000pt" viewBox="0 0 700.000000 700.000000"
 preserveAspectRatio="xMidYMid meet">
<g transform="translate(0.000000,700.000000) scale(0.100000,-0.100000)"
fill="#000000" stroke="none">
<path d="M3134 4638 c-555 -743 -1010 -1355 -1012 -1360 -2 -4 244 -8 547 -8
303 0 551 -3 551 -7 0 -9 -359 -2214 -365 -2237 -3 -16 -2 -17 9 -5 19 20
2016 2700 2016 2705 0 2 -247 4 -550 4 -302 0 -550 3 -550 7 0 8 359 2213 364
2236 2 9 3 17 1 17 -1 0 -457 -608 -1011 -1352z"/>
</g>
</svg>
