<?xml version="1.0" encoding="utf-8"?>
<svg version="1.1" xmlns="http://www.w3.org/2000/svg" xmlns:xlink="http://www.w3.org/1999/xlink" x="0px" y="0px"
	 viewBox="0 0 500 200" style="enable-background:new 0 0 500 200;" xml:space="preserve">
<g id="text">
	<g>
		<path d="M144.3,63.4h25.5L165,93.5c-0.6,4-1,7.3-1.4,10c-0.3,2.7-0.5,4.4-0.5,5.2c0,3.5,0.8,6.1,2.5,7.9c1.7,1.8,4.1,2.7,7.2,2.7
			c7.4,0,12.4-8.4,15-25.1c0.1-0.9,0.3-1.6,0.4-2.1l4.5-28.7h25.5l-5.2,32.9l-0.2,1.5c-2.5,15.6-6.5,26-11.9,31.2
			c-3.4,3.3-7.6,5.7-12.5,7.4c-4.9,1.7-10.5,2.5-16.7,2.5c-10.7,0-19.1-2.4-25.3-7.3c-6.2-4.8-9.2-11.4-9.2-19.7
			c0-1.9,0.2-4.3,0.5-7.2c0.3-2.9,1-7.4,2-13.4L144.3,63.4z"/>
		<path d="M284.9,68.7l-7.5,16.3c-3.3-2.4-6.4-4.1-9.1-5.1c-2.8-1.1-5.5-1.6-8.3-1.6c-2.3,0-4.2,0.5-5.7,1.6
			c-1.5,1.1-2.3,2.4-2.3,3.9c0,2.2,2.5,4.3,7.5,6.2c2.2,0.8,3.9,1.5,5.2,2.1c7,3,11.8,6.2,14.6,9.4c2.8,3.2,4.2,7.3,4.2,12.1
			c0,7.6-2.9,13.8-8.8,18.4c-5.9,4.6-13.8,6.9-23.6,6.9c-5.6,0-10.9-0.7-15.9-2.2c-5.1-1.5-10-3.7-14.7-6.7l8.6-17.4
			c4.9,3,9,5.2,12.3,6.4c3.3,1.2,6.4,1.9,9.4,1.9c2.5,0,4.6-0.6,6.1-1.7c1.5-1.1,2.3-2.6,2.3-4.4c0-2.7-3.5-5.5-10.6-8.4
			c-2.1-0.9-3.7-1.5-4.9-2c-5.6-2.5-9.6-5.2-11.9-8.1c-2.4-2.9-3.5-6.6-3.5-10.9c0-7,2.9-12.7,8.7-17.3c5.8-4.6,13.3-6.9,22.4-6.9
			c4.6,0,9.1,0.6,13.5,1.9C277,64.4,281.1,66.2,284.9,68.7z"/>
		<path d="M292.9,103.2c0-12.3,4-22.4,12.1-30.4c8.1-7.9,18.4-11.9,30.9-11.9c11.6,0,20.9,3.3,27.8,9.9c7,6.6,10.4,15.3,10.4,26.3
			c0,12.2-4.1,22.2-12.2,30.1c-8.2,7.9-18.7,11.8-31.5,11.8c-11.4,0-20.5-3.3-27.3-9.8C296.3,122.7,292.9,114,292.9,103.2z
			 M335.4,81.8c-5,0-9.2,2.1-12.7,6.3c-3.5,4.2-5.2,9.3-5.2,15.4c0,4.5,1.3,8,3.8,10.6c2.5,2.6,5.9,4,10.1,4c5.3,0,9.7-2,13.1-6.1
			c3.4-4.1,5.1-9.2,5.1-15.6c0-4.5-1.3-8.1-3.8-10.7C343.3,83.1,339.9,81.8,335.4,81.8z"/>
		<path d="M382,136.1l11.5-72.7h24.6l-1.8,11.4c4-4.8,7.9-8.3,11.9-10.4c3.9-2.2,8.2-3.2,12.9-3.2c7.5,0,13.4,2,17.5,6.1
			c4.1,4.1,6.2,9.7,6.2,17c0,2.5-0.4,6.6-1.3,12.4c0,0.5-0.1,1-0.1,1.3l-6,38.1h-25.7l6-38.5c0.2-1.1,0.3-2.2,0.5-3.2
			c0.1-1.1,0.2-2,0.2-2.7c0-3.2-0.8-5.6-2.5-7.2c-1.7-1.6-4.1-2.4-7.4-2.4c-4.5,0-8,1.6-10.5,4.8c-2.5,3.2-4.3,8.3-5.4,15.4
			l-5.2,33.9H382z"/>
	</g>
</g>
<g id="bolt">
	<polygon points="97,24.2 35.2,107 68.9,107 57.7,175.8 119.4,93 85.7,93 	"/>
</g>
</svg>
